<svg xmlns="http://www.w3.org/2000/svg" xmlns:xlink="http://www.w3.org/1999/xlink" viewBox="0 0 1144.68 943.91"><defs><style>.cls-1{mask:url(#mask);filter:url(#luminosity-noclip-13);}.cls-10,.cls-12,.cls-14,.cls-16,.cls-18,.cls-2,.cls-20,.cls-22,.cls-24,.cls-31,.cls-34,.cls-39,.cls-4,.cls-41,.cls-43,.cls-45,.cls-48,.cls-54,.cls-58,.cls-6,.cls-72,.cls-75,.cls-76,.cls-78,.cls-79,.cls-8,.cls-80,.cls-83,.cls-86,.cls-88,.cls-90,.cls-91,.cls-92{mix-blend-mode:multiply;}.cls-2{fill:url(#Áåçûìÿííûé_ãðàäèåíò_45);}.cls-3{mask:url(#mask-2);filter:url(#luminosity-noclip-18);}.cls-4{fill:url(#Áåçûìÿííûé_ãðàäèåíò_44);}.cls-5{mask:url(#mask-3);filter:url(#luminosity-noclip-19);}.cls-6{fill:url(#Áåçûìÿííûé_ãðàäèåíò_45-2);}.cls-7{mask:url(#mask-4);filter:url(#luminosity-noclip-20);}.cls-8{fill:url(#Áåçûìÿííûé_ãðàäèåíò_45-3);}.cls-9{mask:url(#mask-5);filter:url(#luminosity-noclip-21);}.cls-10{fill:url(#Áåçûìÿííûé_ãðàäèåíò_12);}.cls-11{mask:url(#mask-6);filter:url(#luminosity-noclip-22);}.cls-12{fill:url(#Áåçûìÿííûé_ãðàäèåíò_12-2);}.cls-13{mask:url(#mask-7);filter:url(#luminosity-noclip-14);}.cls-14{fill:url(#Áåçûìÿííûé_ãðàäèåíò_45-4);}.cls-15{mask:url(#mask-8);filter:url(#luminosity-noclip-23);}.cls-16{fill:url(#Áåçûìÿííûé_ãðàäèåíò_45-5);}.cls-17{mask:url(#mask-9);filter:url(#luminosity-noclip-24);}.cls-18{fill:url(#Áåçûìÿííûé_ãðàäèåíò_45-6);}.cls-19{mask:url(#mask-10);filter:url(#luminosity-noclip-15);}.cls-20{fill:url(#Áåçûìÿííûé_ãðàäèåíò_45-7);}.cls-21{mask:url(#mask-11);filter:url(#luminosity-noclip-16);}.cls-22{fill:url(#Áåçûìÿííûé_ãðàäèåíò_45-8);}.cls-23{mask:url(#mask-12);filter:url(#luminosity-noclip-17);}.cls-24{fill:url(#Áåçûìÿííûé_ãðàäèåíò_45-9);}.cls-25{fill:none;}.cls-26{fill:#587893;}.cls-27{isolation:isolate;}.cls-28{fill:#a7bdd3;}.cls-29{fill:#d6e3f3;}.cls-30{fill:url(#Áåçûìÿííûé_ãðàäèåíò_109);}.cls-31{fill:url(#Áåçûìÿííûé_ãðàäèåíò_109-2);}.cls-32,.cls-76{fill:#efceb4;}.cls-33{mask:url(#mask-13);}.cls-34{fill:url(#Áåçûìÿííûé_ãðàäèåíò_107);}.cls-35{clip-path:url(#clip-path);}.cls-36{fill:#fff;}.cls-37{fill:#cc9b7a;}.cls-38{mask:url(#mask-14);}.cls-39{fill:url(#Áåçûìÿííûé_ãðàäèåíò_107-2);}.cls-40{mask:url(#mask-15);}.cls-41{fill:url(#Áåçûìÿííûé_ãðàäèåíò_107-3);}.cls-42{mask:url(#mask-16);}.cls-43{fill:url(#Áåçûìÿííûé_ãðàäèåíò_107-4);}.cls-44{mask:url(#mask-17);}.cls-45{fill:url(#Áåçûìÿííûé_ãðàäèåíò_107-5);}.cls-46{fill:#899b8b;}.cls-47{fill:url(#Áåçûìÿííûé_ãðàäèåíò_98);}.cls-48{fill:#ff926c;}.cls-49{fill:url(#Áåçûìÿííûé_ãðàäèåíò_87);}.cls-50{fill:#c64040;}.cls-51{clip-path:url(#clip-path-2);}.cls-52{fill:#c62626;}.cls-53{mask:url(#mask-18);}.cls-54{fill:url(#Áåçûìÿííûé_ãðàäèåíò_67);}.cls-55{fill:url(#Áåçûìÿííûé_ãðàäèåíò_98-2);}.cls-56{clip-path:url(#clip-path-3);}.cls-57{clip-path:url(#clip-path-4);}.cls-59{fill:url(#Áåçûìÿííûé_ãðàäèåíò_64);}.cls-60{fill:url(#Áåçûìÿííûé_ãðàäèåíò_64-2);}.cls-61,.cls-79{fill:#ff9327;}.cls-62{fill:#0c161c;}.cls-63,.cls-72{fill:#435460;}.cls-64{fill:url(#Áåçûìÿííûé_ãðàäèåíò_25);}.cls-65{fill:#6d2e03;}.cls-66{fill:url(#Áåçûìÿííûé_ãðàäèåíò_98-3);}.cls-67{fill:#ea6565;}.cls-68{fill:#f93838;}.cls-69{fill:#f55;}.cls-70{fill:#f66;}.cls-71{fill:url(#Áåçûìÿííûé_ãðàäèåíò_98-4);}.cls-72{opacity:0.58;}.cls-73{fill:url(#Áåçûìÿííûé_ãðàäèåíò_98-5);}.cls-74{mask:url(#mask-19);}.cls-75{fill:url(#Áåçûìÿííûé_ãðàäèåíò_107-6);}.cls-77{mask:url(#mask-20);}.cls-78{fill:url(#Áåçûìÿííûé_ãðàäèåíò_107-7);}.cls-80{fill:url(#Áåçûìÿííûé_ãðàäèåíò_34);}.cls-81{fill:url(#Áåçûìÿííûé_ãðàäèåíò_54);}.cls-82{mask:url(#mask-21);}.cls-83{fill:url(#Áåçûìÿííûé_ãðàäèåíò_52);}.cls-84{fill:url(#Áåçûìÿííûé_ãðàäèåíò_98-6);}.cls-85{mask:url(#mask-22);}.cls-86{fill:url(#Áåçûìÿííûé_ãðàäèåíò_52-2);}.cls-87{mask:url(#mask-23);}.cls-88{fill:url(#Áåçûìÿííûé_ãðàäèåíò_107-8);}.cls-89{mask:url(#mask-24);}.cls-90{fill:url(#Áåçûìÿííûé_ãðàäèåíò_107-9);}.cls-91{fill:url(#Áåçûìÿííûé_ãðàäèåíò_72);}.cls-92{fill:url(#Áåçûìÿííûé_ãðàäèåíò_64-3);}.cls-93{filter:url(#luminosity-noclip-12);}.cls-94{filter:url(#luminosity-noclip-11);}.cls-95{filter:url(#luminosity-noclip-10);}.cls-96{filter:url(#luminosity-noclip-9);}.cls-97{filter:url(#luminosity-noclip-8);}.cls-98{filter:url(#luminosity-noclip-7);}.cls-99{filter:url(#luminosity-noclip-6);}.cls-100{filter:url(#luminosity-noclip-5);}.cls-101{filter:url(#luminosity-noclip-4);}.cls-102{filter:url(#luminosity-noclip-3);}.cls-103{filter:url(#luminosity-noclip-2);}.cls-104{filter:url(#luminosity-noclip);}</style><filter id="luminosity-noclip" x="738.69" y="-8666.76" width="66.7" height="32766" filterUnits="userSpaceOnUse" color-interpolation-filters="sRGB"><feFlood flood-color="#fff" result="bg"/><feBlend in="SourceGraphic" in2="bg"/></filter><mask id="mask" x="738.69" y="-8666.76" width="66.7" height="32766" maskUnits="userSpaceOnUse"><g class="cls-104"/></mask><linearGradient id="Áåçûìÿííûé_ãðàäèåíò_45" x1="738.69" y1="191.94" x2="805.39" y2="191.94" gradientUnits="userSpaceOnUse"><stop offset="0" stop-color="gray"/><stop offset="1" stop-color="#fff"/></linearGradient><filter id="luminosity-noclip-2" x="790.41" y="-8666.76" width="75.78" height="32766" filterUnits="userSpaceOnUse" color-interpolation-filters="sRGB"><feFlood flood-color="#fff" result="bg"/><feBlend in="SourceGraphic" in2="bg"/></filter><mask id="mask-2" x="790.41" y="-8666.76" width="75.78" height="32766" maskUnits="userSpaceOnUse"><g class="cls-103"/></mask><linearGradient id="Áåçûìÿííûé_ãðàäèåíò_44" x1="782.94" y1="671.95" x2="851.05" y2="638.73" gradientUnits="userSpaceOnUse"><stop offset="0.42" stop-color="#b3b3b3"/><stop offset="1" stop-color="#fff"/></linearGradient><filter id="luminosity-noclip-3" x="399.18" y="-8666.76" width="28.41" height="32766" filterUnits="userSpaceOnUse" color-interpolation-filters="sRGB"><feFlood flood-color="#fff" result="bg"/><feBlend in="SourceGraphic" in2="bg"/></filter><mask id="mask-3" x="399.18" y="-8666.76" width="28.41" height="32766" maskUnits="userSpaceOnUse"><g class="cls-102"/></mask><linearGradient id="Áåçûìÿííûé_ãðàäèåíò_45-2" x1="399.18" y1="845.38" x2="427.59" y2="845.38" xlink:href="#Áåçûìÿííûé_ãðàäèåíò_45"/><filter id="luminosity-noclip-4" x="456.46" y="-8666.76" width="115.49" height="32766" filterUnits="userSpaceOnUse" color-interpolation-filters="sRGB"><feFlood flood-color="#fff" result="bg"/><feBlend in="SourceGraphic" in2="bg"/></filter><mask id="mask-4" x="456.46" y="-8666.76" width="115.49" height="32766" maskUnits="userSpaceOnUse"><g class="cls-101"/></mask><linearGradient id="Áåçûìÿííûé_ãðàäèåíò_45-3" x1="456.46" y1="876.38" x2="571.94" y2="876.38" xlink:href="#Áåçûìÿííûé_ãðàäèåíò_45"/><filter id="luminosity-noclip-5" x="460.53" y="-8666.76" width="25.22" height="32766" filterUnits="userSpaceOnUse" color-interpolation-filters="sRGB"><feFlood flood-color="#fff" result="bg"/><feBlend in="SourceGraphic" in2="bg"/></filter><mask id="mask-5" x="460.53" y="-8666.76" width="25.22" height="32766" maskUnits="userSpaceOnUse"><g class="cls-100"/></mask><linearGradient id="Áåçûìÿííûé_ãðàäèåíò_12" x1="458.13" y1="416.29" x2="479.6" y2="403.07" gradientUnits="userSpaceOnUse"><stop offset="0.42" stop-color="#b3b3b3"/><stop offset="1" stop-color="#333"/></linearGradient><filter id="luminosity-noclip-6" x="562" y="-8666.76" width="31.52" height="32766" filterUnits="userSpaceOnUse" color-interpolation-filters="sRGB"><feFlood flood-color="#fff" result="bg"/><feBlend in="SourceGraphic" in2="bg"/></filter><mask id="mask-6" x="562" y="-8666.76" width="31.52" height="32766" maskUnits="userSpaceOnUse"><g class="cls-99"/></mask><linearGradient id="Áåçûìÿííûé_ãðàäèåíò_12-2" x1="594.3" y1="451.07" x2="568.6" y2="442.97" xlink:href="#Áåçûìÿííûé_ãðàäèåíò_12"/><filter id="luminosity-noclip-7" x="452.68" y="-8666.76" width="29.27" height="32766" filterUnits="userSpaceOnUse" color-interpolation-filters="sRGB"><feFlood flood-color="#fff" result="bg"/><feBlend in="SourceGraphic" in2="bg"/></filter><mask id="mask-7" x="452.68" y="-8666.76" width="29.27" height="32766" maskUnits="userSpaceOnUse"><g class="cls-98"/></mask><linearGradient id="Áåçûìÿííûé_ãðàäèåíò_45-4" x1="452.68" y1="208.99" x2="481.95" y2="208.99" xlink:href="#Áåçûìÿííûé_ãðàäèåíò_45"/><filter id="luminosity-noclip-8" x="1113.99" y="-8666.76" width="30.7" height="32766" filterUnits="userSpaceOnUse" color-interpolation-filters="sRGB"><feFlood flood-color="#fff" result="bg"/><feBlend in="SourceGraphic" in2="bg"/></filter><mask id="mask-8" x="1113.99" y="-8666.76" width="30.7" height="32766" maskUnits="userSpaceOnUse"><g class="cls-97"/></mask><linearGradient id="Áåçûìÿííûé_ãðàäèåíò_45-5" x1="1113.99" y1="538.01" x2="1144.68" y2="538.01" xlink:href="#Áåçûìÿííûé_ãðàäèåíò_45"/><filter id="luminosity-noclip-9" x="968.75" y="-8666.76" width="131.68" height="32766" filterUnits="userSpaceOnUse" color-interpolation-filters="sRGB"><feFlood flood-color="#fff" result="bg"/><feBlend in="SourceGraphic" in2="bg"/></filter><mask id="mask-9" x="968.75" y="-8666.76" width="131.68" height="32766" maskUnits="userSpaceOnUse"><g class="cls-96"/></mask><linearGradient id="Áåçûìÿííûé_ãðàäèåíò_45-6" x1="968.75" y1="546.7" x2="1100.43" y2="546.7" xlink:href="#Áåçûìÿííûé_ãðàäèåíò_45"/><filter id="luminosity-noclip-10" x="524.33" y="-8666.76" width="45.24" height="32766" filterUnits="userSpaceOnUse" color-interpolation-filters="sRGB"><feFlood flood-color="#fff" result="bg"/><feBlend in="SourceGraphic" in2="bg"/></filter><mask id="mask-10" x="524.33" y="-8666.76" width="45.24" height="32766" maskUnits="userSpaceOnUse"><g class="cls-95"/></mask><linearGradient id="Áåçûìÿííûé_ãðàäèåíò_45-7" x1="524.33" y1="203.27" x2="569.57" y2="203.27" xlink:href="#Áåçûìÿííûé_ãðàäèåíò_45"/><filter id="luminosity-noclip-11" x="762.48" y="-8666.76" width="21.67" height="32766" filterUnits="userSpaceOnUse" color-interpolation-filters="sRGB"><feFlood flood-color="#fff" result="bg"/><feBlend in="SourceGraphic" in2="bg"/></filter><mask id="mask-11" x="762.48" y="-8666.76" width="21.67" height="32766" maskUnits="userSpaceOnUse"><g class="cls-94"/></mask><linearGradient id="Áåçûìÿííûé_ãðàäèåíò_45-8" x1="762.48" y1="70.47" x2="784.15" y2="70.47" xlink:href="#Áåçûìÿííûé_ãðàäèåíò_45"/><filter id="luminosity-noclip-12" x="625.9" y="-8666.76" width="145.5" height="32766" filterUnits="userSpaceOnUse" color-interpolation-filters="sRGB"><feFlood flood-color="#fff" result="bg"/><feBlend in="SourceGraphic" in2="bg"/></filter><mask id="mask-12" x="625.9" y="-8666.76" width="145.5" height="32766" maskUnits="userSpaceOnUse"><g class="cls-93"/></mask><linearGradient id="Áåçûìÿííûé_ãðàäèåíò_45-9" x1="625.9" y1="179.28" x2="771.4" y2="179.28" xlink:href="#Áåçûìÿííûé_ãðàäèåíò_45"/><linearGradient id="Áåçûìÿííûé_ãðàäèåíò_109" x1="703.41" y1="111.93" x2="675.76" y2="268.33" gradientUnits="userSpaceOnUse"><stop offset="0.32" stop-color="#d6e3f3"/><stop offset="1" stop-color="#a7bdd3"/></linearGradient><linearGradient id="Áåçûìÿííûé_ãðàäèåíò_109-2" x1="619.37" y1="351.37" x2="351.05" y2="607.68" xlink:href="#Áåçûìÿííûé_ãðàäèåíò_109"/><filter id="luminosity-noclip-13" x="738.69" y="142.11" width="66.7" height="99.65" filterUnits="userSpaceOnUse" color-interpolation-filters="sRGB"><feFlood flood-color="#fff" result="bg"/><feBlend in="SourceGraphic" in2="bg"/></filter><mask id="mask-13" x="738.69" y="142.11" width="66.7" height="99.65" maskUnits="userSpaceOnUse"><g class="cls-1"><polygon class="cls-2" points="805.39 241.77 738.69 241.77 738.69 142.11 777.22 142.11 805.39 241.77"/></g></mask><linearGradient id="Áåçûìÿííûé_ãðàäèåíò_107" x1="738.69" y1="191.94" x2="805.39" y2="191.94" gradientUnits="userSpaceOnUse"><stop offset="0" stop-color="#efceb4"/><stop offset="1" stop-color="#efceb4"/></linearGradient><clipPath id="clip-path"><path class="cls-25" d="M1021,435.86q0,19.9-1.89,39.35-.71,7.16-1.64,14.24C991.22,686.78,822.29,839,617.8,839S244.4,686.78,218.19,489.45a404.66,404.66,0,0,1,47.07-249.27C334.07,116.43,466.16,32.72,617.8,32.72,840.46,32.72,1021,213.2,1021,435.86Z"/></clipPath><filter id="luminosity-noclip-14" x="452.68" y="177.8" width="29.27" height="62.38" filterUnits="userSpaceOnUse" color-interpolation-filters="sRGB"><feFlood flood-color="#fff" result="bg"/><feBlend in="SourceGraphic" in2="bg"/></filter><mask id="mask-14" x="452.68" y="177.8" width="29.27" height="62.38" maskUnits="userSpaceOnUse"><g class="cls-13"><polygon class="cls-14" points="481.95 240.18 452.68 240.18 452.68 177.8 481.95 240.18"/></g></mask><linearGradient id="Áåçûìÿííûé_ãðàäèåíò_107-2" x1="452.68" y1="208.99" x2="481.95" y2="208.99" xlink:href="#Áåçûìÿííûé_ãðàäèåíò_107"/><filter id="luminosity-noclip-15" x="524.33" y="164.77" width="45.24" height="77" filterUnits="userSpaceOnUse" color-interpolation-filters="sRGB"><feFlood flood-color="#fff" result="bg"/><feBlend in="SourceGraphic" in2="bg"/></filter><mask id="mask-15" x="524.33" y="164.77" width="45.24" height="77" maskUnits="userSpaceOnUse"><g class="cls-19"><polygon class="cls-20" points="569.57 241.76 527.41 241.76 524.33 240.18 524.33 164.77 569.57 241.76"/></g></mask><linearGradient id="Áåçûìÿííûé_ãðàäèåíò_107-3" x1="524.33" y1="203.27" x2="569.57" y2="203.27" xlink:href="#Áåçûìÿííûé_ãðàäèåíò_107"/><filter id="luminosity-noclip-16" x="762.48" y="59.45" width="21.67" height="22.04" filterUnits="userSpaceOnUse" color-interpolation-filters="sRGB"><feFlood flood-color="#fff" result="bg"/><feBlend in="SourceGraphic" in2="bg"/></filter><mask id="mask-16" x="762.48" y="59.45" width="21.67" height="22.04" maskUnits="userSpaceOnUse"><g class="cls-21"><path class="cls-22" d="M784.15,68.53v13h-9.83l-11.84-22Q773.47,63.68,784.15,68.53Z"/></g></mask><linearGradient id="Áåçûìÿííûé_ãðàäèåíò_107-4" x1="762.48" y1="70.47" x2="784.15" y2="70.47" xlink:href="#Áåçûìÿííûé_ãðàäèåíò_107"/><filter id="luminosity-noclip-17" x="625.9" y="118.39" width="145.5" height="121.78" filterUnits="userSpaceOnUse" color-interpolation-filters="sRGB"><feFlood flood-color="#fff" result="bg"/><feBlend in="SourceGraphic" in2="bg"/></filter><mask id="mask-17" x="625.9" y="118.39" width="145.5" height="121.78" maskUnits="userSpaceOnUse"><g class="cls-23"><polygon class="cls-24" points="771.4 172.74 707.14 172.74 707.14 118.39 694.06 118.39 694.06 172.74 625.9 172.74 625.9 185.83 694.06 185.83 694.06 240.18 707.14 240.18 707.14 185.83 771.4 185.83 771.4 172.74"/></g></mask><linearGradient id="Áåçûìÿííûé_ãðàäèåíò_107-5" x1="625.9" y1="179.28" x2="771.4" y2="179.28" xlink:href="#Áåçûìÿííûé_ãðàäèåíò_107"/><linearGradient id="Áåçûìÿííûé_ãðàäèåíò_98" x1="595.2" y1="349.03" x2="631.87" y2="349.03" gradientUnits="userSpaceOnUse"><stop offset="0.42" stop-color="#ff926c"/><stop offset="1" stop-color="#f66"/></linearGradient><linearGradient id="Áåçûìÿííûé_ãðàäèåíò_87" x1="722.57" y1="498.73" x2="678.89" y2="546.16" gradientUnits="userSpaceOnUse"><stop offset="0.62" stop-color="#ff926c"/><stop offset="1" stop-color="#f66"/></linearGradient><clipPath id="clip-path-2"><path class="cls-25" d="M862.29,668l-58.95,16.36-59.82,16.61L692,715.24l-8.38-15.84-4.7-8.9-34.74-65.65c10.76-3.78,21.54-7.53,32.16-11.13,6.6-2.24,13.16-4.41,19.6-6.48,45.52-14.56,86.85-24.07,113.25-15.48a180.93,180.93,0,0,1,15.33,16.17,232.13,232.13,0,0,1,17.59,24.28c3.38,5.32,6.72,10.94,10.09,16.93.16.3.34.61.51.92Q857.45,658.49,862.29,668Z"/></clipPath><filter id="luminosity-noclip-18" x="790.41" y="582.8" width="75.78" height="144.15" filterUnits="userSpaceOnUse" color-interpolation-filters="sRGB"><feFlood flood-color="#fff" result="bg"/><feBlend in="SourceGraphic" in2="bg"/></filter><mask id="mask-18" x="790.41" y="582.8" width="75.78" height="144.15" maskUnits="userSpaceOnUse"><g class="cls-3"><path class="cls-4" d="M845.49,727c.09-1.81.13-3.41.15-4.74.1-14.94-1.09-28.57-4.66-42.86-.43-1.7-.86-3.4-1.33-5.1v0c-4.73-17.71-10.86-34.62-20.09-50.55-5.43-9.34-11.44-19.69-18.4-28.77q-2.31-3-4.74-5.79c-1.39-1.57-2.81-3.09-4.26-4.51-.56-.57-1.17-1.18-1.75-1.78a147.8,147.8,0,0,1,18.82,9,180.93,180.93,0,0,1,15.33,16.17,231.24,231.24,0,0,1,17.59,24.29c3.38,5.31,6.71,10.93,10.09,16.93.16.29.33.6.51.91,3.14,5.63,6.33,11.58,9.55,17.91C871.69,692.49,863.27,712.93,845.49,727Z"/></g></mask><linearGradient id="Áåçûìÿííûé_ãðàäèåíò_67" x1="782.94" y1="671.95" x2="851.05" y2="638.73" gradientUnits="userSpaceOnUse"><stop offset="0.42" stop-color="#ff9327"/><stop offset="1" stop-color="#c62626"/></linearGradient><linearGradient id="Áåçûìÿííûé_ãðàäèåíò_98-2" x1="633.62" y1="344.81" x2="634.97" y2="318.46" xlink:href="#Áåçûìÿííûé_ãðàäèåíò_98"/><clipPath id="clip-path-3"><path class="cls-25" d="M734.27,740.26s1.28-7.35,1.26-7.35l2.66-13.07,3.63-18c.16-1.95,47.62-12.49,62.19-17.49,1.07-.39,2-.72,2.65-1l4.06-1.11L862.29,668C885.43,728.3,800.7,763.89,734.27,740.26Z"/></clipPath><clipPath id="clip-path-4"><path class="cls-26" d="M859.52,658.57l-67.27,17.15-30.87-47.35,59-27.43-11.19-9.18-35.4,14.7-96.65,40.11-17.34,7.2c0,.1.06.21.08.31l-15.7-29.23c-95.12,26.81-91.43,41-205.48,47.82l.55,49.4c17.16.43,34.38.88,51.35,1,73,.69,141.34-3.92,182-39.63a74.39,74.39,0,0,0,9.53,11.75,77.46,77.46,0,0,0,23.65,16.19L862.29,668Z"/></clipPath><linearGradient id="Áåçûìÿííûé_ãðàäèåíò_64" x1="523.3" y1="616.58" x2="656.08" y2="679.46" gradientUnits="userSpaceOnUse"><stop offset="0.21" stop-color="#a7bdd3"/><stop offset="1" stop-color="#587893"/></linearGradient><linearGradient id="Áåçûìÿííûé_ãðàäèåíò_64-2" x1="205.7" y1="623.2" x2="374.15" y2="702.98" xlink:href="#Áåçûìÿííûé_ãðàäèåíò_64"/><linearGradient id="Áåçûìÿííûé_ãðàäèåíò_25" x1="854.22" y1="589.07" x2="846.43" y2="636.2" gradientUnits="userSpaceOnUse"><stop offset="0.73" stop-color="#ff926c"/><stop offset="1" stop-color="#f66"/></linearGradient><linearGradient id="Áåçûìÿííûé_ãðàäèåíò_98-3" x1="885.38" y1="613" x2="890.1" y2="633.56" xlink:href="#Áåçûìÿííûé_ãðàäèåíò_98"/><linearGradient id="Áåçûìÿííûé_ãðàäèåíò_98-4" x1="711.5" y1="679.48" x2="680.5" y2="727.81" xlink:href="#Áåçûìÿííûé_ãðàäèåíò_98"/><linearGradient id="Áåçûìÿííûé_ãðàäèåíò_98-5" x1="565.24" y1="369" x2="619.6" y2="384.18" xlink:href="#Áåçûìÿííûé_ãðàäèåíò_98"/><filter id="luminosity-noclip-19" x="399.18" y="770.74" width="28.41" height="149.29" filterUnits="userSpaceOnUse" color-interpolation-filters="sRGB"><feFlood flood-color="#fff" result="bg"/><feBlend in="SourceGraphic" in2="bg"/></filter><mask id="mask-19" x="399.18" y="770.74" width="28.41" height="149.29" maskUnits="userSpaceOnUse"><g class="cls-5"><polygon class="cls-6" points="427.59 812.13 427.59 920.02 399.18 770.74 427.59 812.13"/></g></mask><linearGradient id="Áåçûìÿííûé_ãðàäèåíò_107-6" x1="399.18" y1="845.38" x2="427.59" y2="845.38" xlink:href="#Áåçûìÿííûé_ãðàäèåíò_107"/><filter id="luminosity-noclip-20" x="456.46" y="808.85" width="115.49" height="135.06" filterUnits="userSpaceOnUse" color-interpolation-filters="sRGB"><feFlood flood-color="#fff" result="bg"/><feBlend in="SourceGraphic" in2="bg"/></filter><mask id="mask-20" x="456.46" y="808.85" width="115.49" height="135.06" maskUnits="userSpaceOnUse"><g class="cls-7"><path class="cls-8" d="M541.16,809.53,484.93,943.91H456.46l34.69-133.24Zm29.91-.68-19.33.45L496.87,943.91h14.54c16.29-27.06,40.46-66.41,60.53-99Z"/></g></mask><linearGradient id="Áåçûìÿííûé_ãðàäèåíò_107-7" x1="456.46" y1="876.38" x2="571.94" y2="876.38" xlink:href="#Áåçûìÿííûé_ãðàäèåíò_107"/><linearGradient id="Áåçûìÿííûé_ãðàäèåíò_34" x1="2078.81" y1="417.13" x2="2138.11" y2="417.13" gradientTransform="translate(-1499.72 487.71) rotate(-16.29)" gradientUnits="userSpaceOnUse"><stop offset="0.42" stop-color="#ffb229"/><stop offset="1" stop-color="#ff9327"/></linearGradient><linearGradient id="Áåçûìÿííûé_ãðàäèåíò_54" x1="590.47" y1="500.32" x2="655.99" y2="500.32" gradientUnits="userSpaceOnUse"><stop offset="0.14" stop-color="#32657c"/><stop offset="1" stop-color="#1b3f49"/></linearGradient><filter id="luminosity-noclip-21" x="460.53" y="373.23" width="25.22" height="57.48" filterUnits="userSpaceOnUse" color-interpolation-filters="sRGB"><feFlood flood-color="#fff" result="bg"/><feBlend in="SourceGraphic" in2="bg"/></filter><mask id="mask-21" x="460.53" y="373.23" width="25.22" height="57.48" maskUnits="userSpaceOnUse"><g class="cls-9"><path class="cls-10" d="M485.75,373.23A230,230,0,0,0,477,430.71c-5.32-.86-10.84-1.59-16.5-2.06Q468.57,395.43,485.75,373.23Z"/></g></mask><linearGradient id="Áåçûìÿííûé_ãðàäèåíò_52" x1="458.13" y1="416.29" x2="479.6" y2="403.07" gradientUnits="userSpaceOnUse"><stop offset="0.42" stop-color="#587893"/><stop offset="1" stop-color="#387096"/></linearGradient><linearGradient id="Áåçûìÿííûé_ãðàäèåíò_98-6" x1="726.08" y1="701.25" x2="774.42" y2="657.59" xlink:href="#Áåçûìÿííûé_ãðàäèåíò_98"/><filter id="luminosity-noclip-22" x="562" y="430.24" width="31.52" height="28.23" filterUnits="userSpaceOnUse" color-interpolation-filters="sRGB"><feFlood flood-color="#fff" result="bg"/><feBlend in="SourceGraphic" in2="bg"/></filter><mask id="mask-22" x="562" y="430.24" width="31.52" height="28.23" maskUnits="userSpaceOnUse"><g class="cls-11"><path class="cls-12" d="M593.51,437.5c-8.6,12.73-19.72,19.51-31.51,21a74.14,74.14,0,0,0,13.66-14.22,92.1,92.1,0,0,0,8.32-14Z"/></g></mask><linearGradient id="Áåçûìÿííûé_ãðàäèåíò_52-2" x1="594.3" y1="451.07" x2="568.6" y2="442.97" xlink:href="#Áåçûìÿííûé_ãðàäèåíò_52"/><filter id="luminosity-noclip-23" x="1113.99" y="467.68" width="30.7" height="140.65" filterUnits="userSpaceOnUse" color-interpolation-filters="sRGB"><feFlood flood-color="#fff" result="bg"/><feBlend in="SourceGraphic" in2="bg"/></filter><mask id="mask-23" x="1113.99" y="467.68" width="30.7" height="140.65" maskUnits="userSpaceOnUse"><g class="cls-15"><path class="cls-16" d="M1139.86,572.56c-3.49,5-4.18,9.78-.58,14.34l-8.33,7-15.63,13.23c-.44.37-.88.76-1.33,1.16v-.05c5-40.35,13-80.57,19.36-120.72.74-4.68,1.5-9.33,2.23-14l8.52-5.87-2.54,62.86c-8.9,10-8.78,18.45-1,25.63C1146.73,560.21,1145.56,565.89,1139.86,572.56Z"/></g></mask><linearGradient id="Áåçûìÿííûé_ãðàäèåíò_107-8" x1="1113.99" y1="538.01" x2="1144.68" y2="538.01" xlink:href="#Áåçûìÿííûé_ãðàäèåíò_107"/><filter id="luminosity-noclip-24" x="968.75" y="492.28" width="131.68" height="108.84" filterUnits="userSpaceOnUse" color-interpolation-filters="sRGB"><feFlood flood-color="#fff" result="bg"/><feBlend in="SourceGraphic" in2="bg"/></filter><mask id="mask-24" x="968.75" y="492.28" width="131.68" height="108.84" maskUnits="userSpaceOnUse"><g class="cls-17"><path class="cls-18" d="M1100.43,497.76l-1.79,44.18c-13.83-12.82-35.52-32.84-54.27-49.66ZM983.21,538.67l74.4,11.62-68.7-36.53v0c3.51,3.63,6.17,7.16,5.07,13.29C993.14,531.69,988.34,535,983.21,538.67Zm-4.15,29.25a11,11,0,0,1-.18,4.54c-.41,1.74-1.12,4.1-2,6.77-2.28,6.84-5.72,15.76-8.14,21.89l128.71-29.9.42-10.38Z"/></g></mask><linearGradient id="Áåçûìÿííûé_ãðàäèåíò_107-9" x1="968.75" y1="546.7" x2="1100.43" y2="546.7" xlink:href="#Áåçûìÿííûé_ãðàäèåíò_107"/><linearGradient id="Áåçûìÿííûé_ãðàäèåíò_72" x1="428.11" y1="688.8" x2="439.09" y2="688.8" gradientUnits="userSpaceOnUse"><stop offset="0.21" stop-color="#72a2af"/><stop offset="1" stop-color="#476572"/></linearGradient><linearGradient id="Áåçûìÿííûé_ãðàäèåíò_64-3" x1="449.9" y1="503.65" x2="405.24" y2="551.59" xlink:href="#Áåçûìÿííûé_ãðàäèåíò_64"/></defs><g class="cls-27"><g id="Capa_2" data-name="Capa 2"><g id="Layer_1" data-name="Layer 1"><path class="cls-28" d="M1021,435.86q0,19.92-1.89,39.35c-.47,4.77-1,9.52-1.65,14.25q-1.84,14-4.65,27.65-1.71,8.35-3.78,16.6C965.29,709.09,806.71,839,617.8,839S270.32,709.09,226.62,533.71a400.51,400.51,0,0,1-8.43-44.25,405.17,405.17,0,0,1-3.54-53.6q0-17.69,1.52-35a398.93,398.93,0,0,1,18.58-90.92c3.53-10.77,7.52-21.33,11.89-31.67a403.15,403.15,0,0,1,55.52-93.18c1.68-2.12,3.4-4.23,5.12-6.3a404.44,404.44,0,0,1,48.53-49.32q11.91-10.17,24.66-19.48Q396,98.64,412.6,88.78A401.69,401.69,0,0,1,617.8,32.72c2,0,4,0,6,.06a403.4,403.4,0,0,1,379.56,285q2.68,8.81,5,17.79a402.83,402.83,0,0,1,11.87,76.31Q1020.94,423.78,1021,435.86Z"/><path class="cls-29" d="M1017.42,489.46q-1.84,14-4.65,27.65-1.71,8.35-3.78,16.6C965.29,709.09,806.71,839,617.8,839S270.32,709.09,226.62,533.71c0-.12-.06-.21-.08-.32-.43-1.7-.84-3.4-1.23-5.12-.36-1.5-.69-3-1-4.49-1.34-6-2.56-12.13-3.62-18.26-.23-1.24-.43-2.47-.64-3.72-.67-4.1-1.29-8.21-1.83-12.34Z"/><path class="cls-29" d="M627.87,870.58a289.43,289.43,0,0,1-34.69-2,2.81,2.81,0,1,1,.67-5.57c102.8,12.47,244.09-35.34,308.54-104.41a2.8,2.8,0,1,1,4.1,3.82C848,825.11,727.32,870.58,627.87,870.58Z"/><path class="cls-29" d="M972.29,687.51a2.85,2.85,0,0,1-1.62-.51,2.81,2.81,0,0,1-.68-3.91,430.3,430.3,0,0,0,26.87-43.47,2.81,2.81,0,0,1,4.94,2.66,438.65,438.65,0,0,1-27.22,44A2.79,2.79,0,0,1,972.29,687.51Z"/><path class="cls-29" d="M1050.87,438.66a2.8,2.8,0,0,1-2.8-2.8c0-237.24-193-430.25-430.27-430.25A430,430,0,0,0,187.55,435.86a2.81,2.81,0,0,1-5.61,0A435.66,435.66,0,0,1,617.8,0C734.23,0,843.68,45.34,926,127.66s127.67,191.77,127.67,308.2A2.8,2.8,0,0,1,1050.87,438.66Z"/><path class="cls-30" d="M1008.38,335.57,355.81,129.43q11.91-10.17,24.66-19.47Q396,98.62,412.6,88.78A400.3,400.3,0,0,1,503.37,49.2L962.88,227.29a400.6,400.6,0,0,1,40.51,90.48Q1006.08,326.58,1008.38,335.57Z"/><path class="cls-31" d="M924.09,489.46H218.19a405.17,405.17,0,0,1-3.54-53.6q0-17.69,1.52-35a398.93,398.93,0,0,1,18.58-90.92c3.53-10.77,7.52-21.33,11.89-31.67Z"/><rect class="cls-32" x="738.69" y="142.11" width="117.77" height="99.65"/><g class="cls-33"><polygon class="cls-34" points="805.39 241.77 738.69 241.77 738.69 142.11 777.22 142.11 805.39 241.77"/></g><rect class="cls-32" x="625.59" y="118.39" width="145.81" height="123.38"/><g class="cls-35"><path class="cls-36" d="M1030.51,401.91H198.37a13.66,13.66,0,0,1,4.36,9.34h827.44C1030.19,408.13,1030.3,405,1030.51,401.91Z"/><path class="cls-36" d="M247.06,251.11H995q-2.14-4.7-4.4-9.34H249.46A13.36,13.36,0,0,1,247.06,251.11Z"/><path class="cls-36" d="M385.53,89.36c-1.73.59-3.48,1.11-5.23,1.61H863.83q-5.79-4.71-11.68-9.34H400.24A53.29,53.29,0,0,1,385.53,89.36Z"/><path class="cls-36" d="M924.07,146.47v343h9.34V156.74Q928.82,151.54,924.07,146.47Z"/><rect class="cls-36" x="600.67" y="24.16" width="9.35" height="465.29"/><path class="cls-36" d="M277.27,186.81V489.45h9.35V183A16.5,16.5,0,0,1,277.27,186.81Z"/></g><rect class="cls-32" x="305.31" y="277.54" width="147.36" height="124.1"/><rect class="cls-32" x="477.13" y="303.84" width="100.54" height="100.54"/><path class="cls-37" d="M264.92,309.9v90.93H216.17a399,399,0,0,1,18.58-90.93Z"/><rect class="cls-37" x="461.03" y="135.77" width="123.71" height="105.99"/><path class="cls-32" d="M452.68,110v131.8H307.28v-63A403.15,403.15,0,0,1,380.47,110Z"/><rect class="cls-37" x="632.46" y="232.02" width="23" height="1.77"/><polygon class="cls-37" points="642.6 209.61 638.82 209.61 638.82 229.04 636.17 229.04 636.17 209.61 632.46 209.61 637.53 201.22 642.6 209.61"/><polygon class="cls-37" points="655.23 209.61 651.45 209.61 651.45 229.04 648.8 229.04 648.8 209.61 645.09 209.61 650.16 201.22 655.23 209.61"/><path class="cls-37" d="M676.07,222.1v9.47h5.63v2.65H667.45v-2.65h6V222.1a9.06,9.06,0,0,1-7.73-9V201.22H672l-2,3.65,2.2,1.81-2.2,4.58,4.59-4.1-.71-3.14,1.86-1.8v-1h8v11.92A9.06,9.06,0,0,1,676.07,222.1Z"/><rect class="cls-37" x="386.27" y="154.4" width="25.36" height="1.95"/><polygon class="cls-37" points="397.45 129.69 393.28 129.69 393.28 151.12 390.36 151.12 390.36 129.69 386.27 129.69 391.86 120.43 397.45 129.69"/><polygon class="cls-37" points="411.38 129.69 407.21 129.69 407.21 151.12 404.29 151.12 404.29 129.69 400.2 129.69 405.79 120.43 411.38 129.69"/><path class="cls-37" d="M434.37,143.46v10.45h6.21v2.92H424.86v-2.92h6.59V143.46a10,10,0,0,1-8.53-9.88V120.43h7l-2.23,4,2.43,2-2.43,5.06,5.06-4.52-.78-3.47,2.05-2v-1.1h8.88v13.15A10,10,0,0,1,434.37,143.46Z"/><rect class="cls-37" x="383.68" y="393.81" width="21.38" height="1.64"/><polygon class="cls-37" points="393.11 372.98 389.6 372.98 389.6 391.04 387.13 391.04 387.13 372.98 383.68 372.98 388.4 365.17 393.11 372.98"/><polygon class="cls-37" points="404.85 372.98 401.34 372.98 401.34 391.04 398.88 391.04 398.88 372.98 395.43 372.98 400.14 365.17 404.85 372.98"/><path class="cls-37" d="M424.23,384.59v8.81h5.24v2.46H416.22V393.4h5.55v-8.81a8.43,8.43,0,0,1-7.19-8.33V365.17h5.89l-1.88,3.4,2.05,1.68-2.05,4.26,4.27-3.81-.66-2.92,1.72-1.68v-.93h7.49v11.09A8.42,8.42,0,0,1,424.23,384.59Z"/><rect class="cls-32" x="452.68" y="162.26" width="71.65" height="77.91"/><g class="cls-38"><polygon class="cls-39" points="481.95 240.18 452.68 240.18 452.68 177.8 481.95 240.18"/></g><g class="cls-40"><polygon class="cls-41" points="569.57 241.76 527.41 241.76 524.33 240.18 524.33 164.77 569.57 241.76"/></g><path class="cls-32" d="M784.15,68.53v13H623.83V32.77A402,402,0,0,1,762.48,59.45Q773.47,63.68,784.15,68.53Z"/><g class="cls-42"><path class="cls-43" d="M784.15,68.53v13h-9.83l-11.84-22Q773.47,63.68,784.15,68.53Z"/></g><g class="cls-44"><polygon class="cls-45" points="771.4 172.74 707.14 172.74 707.14 118.39 694.06 118.39 694.06 172.74 625.9 172.74 625.9 185.83 694.06 185.83 694.06 240.18 707.14 240.18 707.14 185.83 771.4 185.83 771.4 172.74"/></g><path class="cls-46" d="M625.35,366.13,609,390.89l-23.14,35.05C564.74,445,542.7,443.72,517,438.71c-12.37-2.43-25.59-5.72-40-8-5.32-.86-10.84-1.59-16.5-2.06q8-33.22,25.22-55.42c1.06-1.42,2.16-2.79,3.3-4.13,14.19-16.85,32.53-28.66,54.81-35.71a164.14,164.14,0,0,1,29.76-6.33c1-.14,2.06-.27,3.11-.38,3.59-.37,7.25-.67,11-.88,1.83-.09,3.66-.18,5.51-.22.45,0,.92,0,1.37-.06l2.95,0,2.39,3.49.58.86,6.21,9.09,6.86,10Z"/><path class="cls-46" d="M671.61,478.41,633.43,503.5c-22.67-27.22-30.28-59.24-36.82-93.45l28.73-43.93c39.22,16.51,47,37.2,43.39,108.42Z"/><path class="cls-26" d="M494.26,434.67c28.43-43.06,63.42-91.85,57.33-104.69l14.95-3.74c2.55,13-4,34.9-21.18,57.33L589,394.16l30.54-36.76,5.84,8.72-40.11,61.07C568.2,446.55,539.75,444.64,494.26,434.67Z"/><path class="cls-47" d="M631.87,360.36,627,364.7l-1.61,1.42c-14.58-.49-24.7-10.9-30.15-25.7L611.8,332a8,8,0,0,0,1.21,1.1c-2.35,7.76.52,15.78,5.76,21.11A19.53,19.53,0,0,0,631.87,360.36Z"/><path class="cls-48" d="M631.87,360.36,627,364.7a18.55,18.55,0,0,1-6.23-6.51,20.55,20.55,0,0,1-2-4A19.53,19.53,0,0,0,631.87,360.36Z"/><path class="cls-49" d="M723.26,535.62c26.67,4.59,21.81,15.25-4.68,5.29,23,9.17,19.63,16.5-5.61,4.05,25.67,20.45-7.29,9.26-35.51-6.24-1.26-.69-2.51-1.38-3.72-2.09a159.84,159.84,0,0,1-27.54-19.86L677.94,487l19.46,26.22c20.9.58,39.26.4,39.11,3.59-.08,1.61-4.84,4.08-16.38,7.93C749.15,534.38,751.46,537.5,723.26,535.62Z"/><path class="cls-48" d="M723.26,535.62c26.67,4.59,21.81,15.25-4.68,5.29,23,9.17,19.63,16.5-5.61,4.05,25.67,20.45-7.29,9.26-35.51-6.24-1.26-.69-2.51-1.38-3.72-2.09l62.77-19.86c-.08,1.61-4.84,4.08-16.38,7.93C749.15,534.38,751.46,537.5,723.26,535.62Z"/><polygon class="cls-46" points="681.2 483.89 677.94 486.96 646.2 516.77 640.07 522.53 631.98 504.45 633.43 503.5 671.61 478.41 675.59 475.8 681.2 483.89"/><rect class="cls-36" x="628.08" y="490.73" width="47.42" height="1.4" transform="translate(-162.8 438.77) rotate(-33.32)"/><path class="cls-50" d="M862.3,668l-22.65,6.28-33.92,9.42-2.38.66-31.94,8.88-.59.16L743.53,701l-.71.19L692,715.24l-8.38-15.84-4.7-8.9-34.74-65.64c10.76-3.79,21.54-7.54,32.16-11.13.47-.16,1-.34,1.43-.49,6.11-2.07,12.2-4.08,18.17-6,38.7-12.38,74.39-21.12,100.44-18.15a63.26,63.26,0,0,1,12.81,2.67,180.93,180.93,0,0,1,15.33,16.17,231.24,231.24,0,0,1,17.59,24.29c3.38,5.31,6.71,10.93,10.09,16.93.16.29.33.6.51.91C855.89,655.69,859.08,661.64,862.3,668Z"/><g class="cls-51"><path class="cls-52" d="M681.12,653.3c-5.13-5.63-8.9-12.22-9.87-17.59-1.13-6.22-1.47-13.44.67-19.44,8.78-24.61,40-30.57,48.43-2,4.31,14.54,6.69,40.89-9.83,49.7C701.19,669,689.38,662.38,681.12,653.3Z"/></g><path class="cls-50" d="M845.49,727c-25.93,20.5-71.8,27.34-111.22,13.32,0-.14,1.27-7.24,1.27-7.36l2.66-13.06,3.63-18.05c0-.15.35-.39,1-.66,3.44-1.5,15.29-4.55,28-7.77l.59-.16c12.65-3.24,26-6.64,32.61-8.9l1.71-.64.94-.39,4.06-1.12,28.92-8L862.3,668C871.69,692.49,863.27,712.93,845.49,727Z"/><g class="cls-53"><path class="cls-54" d="M845.49,727c.09-1.81.13-3.41.15-4.74.1-14.94-1.09-28.57-4.66-42.86-.43-1.7-.86-3.4-1.33-5.1v0c-4.73-17.71-10.86-34.62-20.09-50.55-5.43-9.34-11.44-19.69-18.4-28.77q-2.31-3-4.74-5.79c-1.39-1.57-2.81-3.09-4.26-4.51-.56-.57-1.17-1.18-1.75-1.78a147.8,147.8,0,0,1,18.82,9,180.93,180.93,0,0,1,15.33,16.17,231.24,231.24,0,0,1,17.59,24.29c3.38,5.31,6.71,10.93,10.09,16.93.16.29.33.6.51.91,3.14,5.63,6.33,11.58,9.55,17.91C871.69,692.49,863.27,712.93,845.49,727Z"/></g><path class="cls-55" d="M652.58,343a49.65,49.65,0,0,1-9.1,12.74,15.82,15.82,0,0,1-11.61,4.68C620,360,609,346.16,613,333.06A8.06,8.06,0,0,1,611.8,332c-4.55-4.78-3.16-12.22,2.09-7.64,5.93-19.68,41.39-16.9,41.83,7.38a30,30,0,0,1-.91,5.22C660.66,335.82,662.17,340.7,652.58,343Z"/><g class="cls-56"><path class="cls-52" d="M814,678.85c-3.69,12.15-15.14,24.32-25.68,27.84-14.67,4.89-28.87,6.55-44,2.93-7.21-1.73-16.92-3.64-21.17-10.39-9.68-15.33,8.5-33,20.7-39.81,17.48-9.7,40.94-14,59.75-5.24C815,659.46,816.94,669.15,814,678.85Z"/></g><path class="cls-26" d="M859.52,658.57l-67.27,17.15-30.87-47.35,59-27.43-11.19-9.18-35.4,14.7-96.65,40.11-17.34,7.2c0,.1.06.21.08.31l-15.7-29.23c-95.12,26.81-91.43,41-205.48,47.82l.55,49.4c17.16.43,34.38.88,51.35,1,73,.69,141.34-3.92,182-39.63a74.39,74.39,0,0,0,9.53,11.75,77.46,77.46,0,0,0,23.65,16.19L862.29,668Z"/><g class="cls-57"><g class="cls-58"><path class="cls-59" d="M791.73,641.18c-14.3-9.42-35-7.21-50.43-3.88q-9.06,2-18,4.59c-.1-.17-.21-.34-.32-.5-6.3-10.07-14.12-23.91-25.85-28.43-21.5-8.29-24.57,25.18-18.19,38,1.05,2.12,2.18,4.23,3.36,6.34-36.39,16.79-70,40.68-98.06,68-6.27,6.09-13.82,18.61-2.29,21.77,6.75,1.85,16.87-4.34,23.51-5.66,20.2-4,40.34-3.8,59.92-10.44,22.31-7.56,45.77-12.5,68.84-17.25,14.76-3,29.67-6,43.72-11.66,13-5.19,28.11-9.75,33-24.48C815.51,663.57,803.33,648.81,791.73,641.18Z"/></g><g class="cls-58"><path class="cls-60" d="M400.54,755.41c6.17-.28,12.35-.39,18.52-.43q8-1.58,15.95-3a2.7,2.7,0,0,1,1.08-.19c9.14-1.65,18.31-3.15,27.52-4.42,10.27-1.41,20.65-2.57,31-3.46,6-1.45,11.94-2.75,18-3.64a85.66,85.66,0,0,1,17.6-1.15c-7.7-5.82-18-10.85-27.91-15.12-11.72-5-23-9-29-12-10.77-5.37-22-9.12-33-14-8.1-3.62-16.71-5.86-24.93-9.15-6.16-2.47-10.41-7.18-15.92-9.8-.62-.3-1.26-.53-1.89-.77-.38.84-.78,1.67-1.19,2.49a2.73,2.73,0,0,1-.29,1.37,574.58,574.58,0,0,1-30.27,51.57c3.3,2.8,6.55,5.66,9.79,8.53C383.94,746.7,392.23,751.07,400.54,755.41Z"/></g></g><path class="cls-61" d="M970.87,712.42l-.07.21c-8.92-3.16-16.85-2.79-20.36,3.38a19.34,19.34,0,0,0-2.62,11.65c.53,5.49,3.39,10.8,7.59,15.57l-.15.13c-10.76-4.92-18.24-10.77-22.88-16.62,0,0,0,0,0,0-4.86-6.09-6.61-12.11-5.77-16.93C928.61,698.14,945.77,693.58,970.87,712.42Z"/><path class="cls-61" d="M955.26,743.36l.15-.12c13.56,15.52,41.26,25.66,50.27,19l.16.3c-14.86,17.87-35.4,19.88-51.36,9.37-20.49-13.52-14.46-27.8-22.1-45.14C937,732.59,944.5,738.45,955.26,743.36Z"/><path class="cls-62" d="M624.62,314.41C614,331.54,603,317.59,617,313c-13.27,11.11-3.79-7.43,7.23-5,19.32-6.44,23.82-5.47,15.12,2.07,24.38-7.58,24.29-2.15,11.39,2.53,9.39.32,12.22-.14,5.2,3.75,7.14,3.43,3.31,4.05-.1,5.38,3.93,8.3-7.94,3.61-11.87-1.08C644.52,327.22,629.91,321.88,624.62,314.41Z"/><path class="cls-63" d="M439.28,722.08c-28.66,12.67-44.94,21.68-62.55,13.66-8.23-5.72,4.56-32,44.13-62l7.25-.43,10.62-.62.36,32.25Z"/><path class="cls-63" d="M970.8,712.63c19.55,6.87,43.88,30.54,37.19,46.68a6.61,6.61,0,0,1-2.31,2.91c-9,6.68-36.71-3.46-50.27-19-7.14-8.13-10.38-17.78-5-27.23C954,709.83,961.89,709.48,970.8,712.63Z"/><path class="cls-62" d="M1010.55,748.67c-6.6,13.73-60.94-7.88-45.94-31.35C974.63,701.65,1019.48,730.11,1010.55,748.67Z"/><path class="cls-28" d="M961.79,711.92c-14.23,25,42.6,51.33,48.69,36.62C1011,777.1,930.12,734.13,961.79,711.92Z"/><path class="cls-64" d="M873,634.35l-11.58,3.53-3,.92-2.09.64-5.87,1.8-.88.28-3.82,1.16-9.47,2.9-1.2.37c-20.25-3.6-13.72-30.88-5.19-36.92L865,600l3.85-1,.6-.15a30.54,30.54,0,0,0-4,5.79,24,24,0,0,0-2.62,14.65,31.44,31.44,0,0,0,1,4.74c0,.12,0,.21.09.33.2.72.45,1.46.72,2.18a.3.3,0,0,0,0,.11,11.87,11.87,0,0,0,1.28,2.51,12.31,12.31,0,0,0,5.66,4.66l.13.06Z"/><path class="cls-63" d="M664.52,553.06H584.46c.45-5.48,1.06-10.86,1.7-16.06l57.65-7C650.82,533.28,662.32,539.24,664.52,553.06Z"/><path class="cls-26" d="M657.15,451.44a150.94,150.94,0,0,1-.81,16.47c-1.64,16.68-5.77,37.28-12.52,62.1l-22.51,2.73-20,2.43L586.17,537c4.63-38.17,9.77-65.87-49.84-44.23-10.71,54.33-47.28,63.8-86.34,60.85-20.06-1.5-40.77-6.26-59-9.91a119.59,119.59,0,0,1-6.52-19.87c-4.45-19.53-1.07-32.79,2.26-43.63,24.37,1.09,46.75,7.42,66.88,19.57q-.58-40.45,6.92-71.13c39.68,3.37,70.85,18.14,98.81,11.61,9.12-2.13,17.91-6.52,26.53-14.32C632,402.28,656.68,408,657.15,451.44Z"/><path class="cls-63" d="M393.32,559.6c-47.22,4.06-42-54.6-20.57-79.45q7.1-.25,14,.06c-4.36,14.17-8.79,32.45,4.26,63.5Z"/><path class="cls-50" d="M832.23,607.45c-5.56,9.81-7.51,21.73-4.8,35l-8.41-.69c-3.94-6.83-4-25.44,6-34Z"/><path class="cls-50" d="M827.43,642.45l-2.92,7.89a26.22,26.22,0,0,0,26.93-2.23l-2.05-6.69C838.16,644.84,832,646.61,827.43,642.45Z"/><path class="cls-65" d="M884.05,595.8c-10.23-3.36,2.54-18.88,7.06-9.94-4.59-8.68-2.39-12.35,5.61.29,22.86-4.35,22.41,10.57,11.72,9.33,21.9,7,17.33,12.3,8.24,7.89,7.37,6.92,5.57,12.86-1.38,7.14,2,12.89-4,14.07-7.74,9.23-1.2,9.84-7.3,5.22-8.64.17Z"/><path class="cls-66" d="M905.35,618.16a73.26,73.26,0,0,1-9,8.36c4.92,3.38,3.89,8.53-4.66,3.36a72.79,72.79,0,0,1-6.74,4,13.61,13.61,0,0,1-3.73,1.32,12.09,12.09,0,0,1-1.33.17,12.5,12.5,0,0,1-2.52-.07,27.31,27.31,0,0,1-4.31-1l-1.29-.47a12.52,12.52,0,0,1-3.42-2.06,12.31,12.31,0,0,1-3.65-5.17c-3.65-9.79-2.78-19.14,4.76-27.8l.25-.29c-2.64-7.37,3.42-11.43,5.66-3.91l.17-.1c8.88-4.93,22.5-1.8,29.07,5.5a14.63,14.63,0,0,1,3.4,6.24C908.88,609.85,908.22,613.89,905.35,618.16Z"/><path class="cls-62" d="M885,608.36c-.92.79-2.09.93-2.61.32s-.21-1.75.71-2.53,2.09-.93,2.61-.32S886,607.57,885,608.36Z"/><path class="cls-62" d="M893.82,618.83c-.91.79-2.08.93-2.61.32s-.2-1.75.72-2.53,2.09-.93,2.61-.32S894.74,618,893.82,618.83Z"/><g class="cls-58"><path class="cls-67" d="M886.12,619.4a5.8,5.8,0,0,1-3.45-1.36.94.94,0,0,1,1.13-1.49c1.37,1,2.67,1.28,3.29.62s.58-2.57-1-4.44a.94.94,0,0,1,1.41-1.23c2.48,2.86,2.25,5.61,1,7A3.16,3.16,0,0,1,886.12,619.4Z"/></g><path class="cls-68" d="M877.89,623.78l-1.27-1.37c1.41-1.32,2.09-2.36,2-3.07-.15-1.08-2.14-2.16-4.46-3.4l-.23-.12.88-1.65.24.13c2.88,1.54,5.16,2.77,5.42,4.8C880.65,620.48,879.83,622,877.89,623.78Z"/><path class="cls-69" d="M879.24,605.94c.17-1.25-1.14-3-1.83-3.74a4.51,4.51,0,0,0-2.53-1.56,1.74,1.74,0,0,0-2.1,2,6.21,6.21,0,0,0,4.75,4.41,1.58,1.58,0,0,0,1.56-.68A1.84,1.84,0,0,0,879.24,605.94Z"/><path class="cls-69" d="M894.42,626.78c1-1.6-1.65-5.79-3.19-6-3.09-.42-.08,7.74,2.68,6.43A1.15,1.15,0,0,0,894.42,626.78Z"/><path class="cls-65" d="M903.55,608.34a17.05,17.05,0,0,1-.82,3.65,4.71,4.71,0,0,0-.14,1.16c0,.18.21.52.73.85l-.54,1.79a3.13,3.13,0,0,1-2.5-1.46,4.27,4.27,0,0,1-.44-2.86,6.41,6.41,0,0,1,2-4Z"/><path class="cls-65" d="M888.15,601.2c.44.64.84,1.24,1.23,1.76a5.52,5.52,0,0,0,1.13,1.17,2.56,2.56,0,0,0,1,.42,9,9,0,0,0,1.71.14l1,2.2a4.39,4.39,0,0,1-6-.06,5.68,5.68,0,0,1-1.58-2.56,7,7,0,0,1-.28-2.63Z"/><path class="cls-62" d="M635.44,333.46c-.34,1.12-1.22,1.83-2,1.61s-1.06-1.31-.72-2.43,1.21-1.83,2-1.6S635.78,332.35,635.44,333.46Z"/><path class="cls-62" d="M648.19,336.27c-.34,1.12-1.22,1.83-2,1.61s-1.06-1.32-.72-2.43,1.21-1.83,2-1.6S648.53,335.16,648.19,336.27Z"/><g class="cls-58"><path class="cls-70" d="M639,343.46h-.23a.94.94,0,0,1-.92-.95.88.88,0,0,1,.95-.92c2.88,0,4-.61,4.18-1.18s-.47-2.19-4-4.46a.94.94,0,0,1-.28-1.29.92.92,0,0,1,1.29-.28c3.65,2.35,5.34,4.68,4.78,6.57C644.42,342.1,643.14,343.46,639,343.46Z"/></g><path class="cls-36" d="M636.68,350.94l1-1.06c2.14-3.86,1.21-5.2-7.87-7.36Z"/><path class="cls-68" d="M636.66,351.69a.69.69,0,0,1-.52-.31L629.26,343a.71.71,0,0,1,0-.82.69.69,0,0,1,.75-.31c6.1,1.44,8.41,2.5,9.14,4.16.59,1.34,0,2.82-.82,4.22,0,.09,0,.09-.59.67l-.48.51a.6.6,0,0,1-.52.29Zm-5-8,5,6.16.43-.46c.72-1.33,1-2.22.68-2.84C637.39,345.6,635.57,344.74,631.68,343.71Z"/><path class="cls-70" d="M629.73,336c-.37-1.15-2.23-2.11-3.15-2.47a4.36,4.36,0,0,0-2.84-.29,1.68,1.68,0,0,0-1,2.65,6,6,0,0,0,6,1.83,1.51,1.51,0,0,0,1.06-1.25A1.28,1.28,0,0,0,629.73,336Z"/><path class="cls-70" d="M653.24,341.32c-.35-1.74-4.47-2-5.51-.83-2.08,2.25,4.62,4.47,5.47,1.5A1.42,1.42,0,0,0,653.24,341.32Z"/><path class="cls-62" d="M629.33,325.44a12.4,12.4,0,0,0,4,.43,8.2,8.2,0,0,0,1.78-.32c.53-.18.81-.19,1.3-.4l1.8.48a2.69,2.69,0,0,1-.64,1.75,4,4,0,0,1-1.35,1,6.92,6.92,0,0,1-2.85.49,8.08,8.08,0,0,1-5-1.83Z"/><path class="cls-62" d="M647.94,327.41c.63.84,1.24,1.71,1.93,2.56a11,11,0,0,0,2.36,2.16L652,334a4.55,4.55,0,0,1-2.5-.45,6.36,6.36,0,0,1-2-1.46,6.17,6.17,0,0,1-1.3-2.05,4.19,4.19,0,0,1-.13-2.61Z"/><path class="cls-62" d="M619.34,348l-11.89,15.4a3.59,3.59,0,0,1-5.81-.2l-.3-.47-23.83-35.52a3.55,3.55,0,0,1,.41-4.48l12.76-13.14a2.28,2.28,0,0,1,.39-.32,3.55,3.55,0,0,1,5.11.79l23.28,33.73A3.56,3.56,0,0,1,619.34,348Z"/><path class="cls-26" d="M625.21,348.48l-11.92,15.4c-1.49,1.93-10,2.14-11.3.1l-.65-1.28.3.47a3.59,3.59,0,0,0,5.81.2L619.34,348a3.56,3.56,0,0,0,.12-4.21L596.18,310a3.55,3.55,0,0,0-5.11-.79c3-2.62,7.87-1.84,11,1.3l23.3,33.73A3.59,3.59,0,0,1,625.21,348.48Z"/><path class="cls-63" d="M672.07,733.93c-15.57,14.62-37.84,26.06-52,24.5-4.43-.5-8.09-2.27-10.5-5.58-13.83-19,35.32-51.05,38.35-53.09a64.22,64.22,0,0,0,24.19,34.17Z"/><path class="cls-26" d="M803.26,678.49a26.93,26.93,0,0,1-6.15,7.93c-11.55,10.93-34.71,20.87-58,28.84-30.37,10.36-60.94,17.31-66.23,18.49l-.8.17c-1.63-1.17-3.17-2.4-4.63-3.67-.67-.57-1.31-1.15-1.94-1.74a62.85,62.85,0,0,1-14.79-21.08,66.41,66.41,0,0,1-2.84-7.68,384.17,384.17,0,0,1,39.78-23.06.13.13,0,0,0,.09,0c51.08-25.71,111.92-42.91,116.86-5.72A13.05,13.05,0,0,1,803.26,678.49Z"/><path class="cls-71" d="M736.78,705.43l-3,9.79-1.3,4.31-5.26,17.38a176.26,176.26,0,0,1-18.16-5.43,140.87,140.87,0,0,1-23-10.46,87.91,87.91,0,0,1-22.82-18.38c-18.86-18.59-5.88-17.12-.53-15.25-4-9,.65-14.54,7.87-6.3-2.61-6.84.45-13.81,8.42-5.78-6.17-10-1.53-19.33,18.49,9.47,5.37-17.09,5.58-16,14.09,9.45Z"/><path class="cls-72" d="M672.07,733.93c-15.57,14.62-37.84,26.06-52,24.5l37.73-38.66A65.21,65.21,0,0,0,672.07,733.93Z"/><path class="cls-65" d="M880.28,592.51s11.53,7,15.3,6.8c1.84-.07,3.89-3.4,3.89-3.4s.48,7.78,4.86,9.23a5.26,5.26,0,0,0,6.31-2.43l-9.47-14.32Z"/><path class="cls-29" d="M565.05,717.53a.7.7,0,0,1-.67-.51l-7.81-28a.63.63,0,0,1,.08-.55.67.67,0,0,1,.45-.32,309.32,309.32,0,0,0,56.5-16.88.64.64,0,0,1,.54,0,.69.69,0,0,1,.38.39l11.06,28.64a.71.71,0,0,1-.25.83c-14.92,10.33-34.63,15.69-60.26,16.39Zm-6.93-28.15,7.46,26.74c24.82-.75,44-5.93,58.49-15.83l-10.6-27.45A309.63,309.63,0,0,1,558.12,689.38Z"/><path class="cls-46" d="M593.51,437.49c-8.59,12.73-19.72,19.52-31.51,21-15.24,1.9-31.58-5.13-45-19.76-14-15.33-24.88-39-27.94-69.62a110.06,110.06,0,0,1,31.92-26c1.89-1,3.82-2,5.78-2.95a128.85,128.85,0,0,1,17.1-6.75l6.64,44.81.86,5.75,4.92,33.26,2-6.54L584,430.24Z"/><path class="cls-73" d="M613.58,348.92c-.71,5.93-1.78,13.2-3.2,21.88A198,198,0,0,1,609,390.89q-1,7.71-2.51,14.52a110.93,110.93,0,0,1-4.89,16.38,78,78,0,0,1-8.1,15.7l-35.23-26.82.16-.58L561.52,400l13.35-43.72c-1.22-15-1.59-24.57-1.26-29.26s1.42-4.56,3.11-.37a166.51,166.51,0,0,1,5.4,18.41c2.13-8.07,4-14.62,5.59-19.29,3.55-10.62,5.57-11.81,5.51-.22,0,1.42,0,3-.11,4.8.52-1.79,1-3.42,1.48-4.86,3.53-10.73,5.55-11.16,5.34,3.44,0,.88,0,1.81,0,2.8l.63-1.94c4.53-13.46,7.46-16.13,6.38,9C613.92,323.31,616.37,325.86,613.58,348.92Z"/><polygon class="cls-46" points="604.08 423.14 596.14 439.49 593.5 437.49 558.27 410.67 555.01 408.18 560.15 399.3 561.52 400.03 576.9 408.39 601.6 421.79 604.08 423.14"/><path class="cls-48" d="M873,634.35l-11.58,3.53-3,.92,6.2-12.26a.3.3,0,0,0,0,.11,11.87,11.87,0,0,0,1.28,2.51,12.31,12.31,0,0,0,5.66,4.66l.13.06Z"/><path class="cls-48" d="M734.11,706.74l-1.6,12.79-5.26,17.38a176.26,176.26,0,0,1-18.16-5.43Z"/><polygon class="cls-50" points="742.18 700.11 741.52 703.89 735.53 737.69 734.62 742.86 720.89 738.2 721.88 734.47 731.41 698.8 731.88 697.01 742.18 700.11"/><rect class="cls-36" x="716.69" y="720.55" width="43.42" height="1.87" transform="translate(-100.48 1323.2) rotate(-79.99)"/><path class="cls-36" d="M454.07,512.63a.69.69,0,0,1-.7-.67l-.47-12.15a.7.7,0,0,1,.38-.65.72.72,0,0,1,.76.07l10.75,8.41a.71.71,0,0,1,.11,1,.7.7,0,0,1-1,.11l-9.56-7.47.41,10.64a.69.69,0,0,1-.67.72Z"/><path class="cls-36" d="M609.26,534.32l-1.4-.06c1-22.34.17-49.05-14.68-57.39-11.49-6.47-30.49-.91-56.47,16.48l-.78-1.16c26.83-18,45.78-23.38,57.93-16.55C609.38,484.37,610.24,511.58,609.26,534.32Z"/><polygon class="cls-36" points="657.37 732.29 648.21 718.6 649.37 717.82 658.54 731.51 657.37 732.29"/><rect class="cls-36" x="648.09" y="719.88" width="1.4" height="16.48" transform="translate(-295.41 484.03) rotate(-33.8)"/><rect class="cls-36" x="643.51" y="722.95" width="1.4" height="16.48" transform="translate(-297.88 482) rotate(-33.8)"/><rect class="cls-36" x="428.65" y="711.71" width="1.4" height="14.49" transform="translate(-225.77 197.36) rotate(-20.63)"/><rect class="cls-36" x="423.49" y="713.65" width="1.4" height="14.49" transform="translate(-226.76 195.64) rotate(-20.63)"/><rect class="cls-36" x="418.33" y="715.59" width="1.4" height="14.5" transform="translate(-227.83 194.02) rotate(-20.63)"/><rect class="cls-36" x="380.11" y="527.17" width="5.8" height="1.4" transform="translate(-69.25 57.97) rotate(-7.94)"/><polygon class="cls-36" points="380.97 534.2 380.77 532.82 386.51 532.01 386.7 533.39 380.97 534.2"/><polygon class="cls-36" points="381.7 539.42 381.51 538.04 387.24 537.23 387.44 538.62 381.7 539.42"/><polygon class="cls-36" points="641.94 538.12 640.73 537.41 645.13 529.98 646.33 530.69 641.94 538.12"/><polygon class="cls-36" points="646.49 540.81 645.28 540.1 649.67 532.66 650.88 533.38 646.49 540.81"/><polygon class="cls-36" points="651.03 543.49 649.82 542.78 654.21 535.35 655.42 536.06 651.03 543.49"/><rect class="cls-26" x="181.47" y="504.4" width="5.61" height="96.74"/><rect class="cls-26" x="229.02" y="551.33" width="5.61" height="96.74"/><rect class="cls-26" x="276.57" y="598.25" width="5.61" height="96.74"/><rect class="cls-26" x="324.12" y="645.18" width="5.61" height="96.74"/><path class="cls-28" d="M359.06,781.06H4.82v-9.35h343L137,561l6.61-6.61L362.36,773.08a4.67,4.67,0,0,1-3.3,8Z"/><path class="cls-28" d="M361.86,686.66H7.62v-9.35h343L139.84,466.58l6.61-6.61L365.17,678.68a4.68,4.68,0,0,1-3.31,8Z"/><rect class="cls-26" x="60.9" y="685.54" width="5.61" height="86.46"/><rect class="cls-26" x="141.43" y="685.54" width="5.61" height="86.46"/><rect class="cls-26" x="221.97" y="685.54" width="5.61" height="86.46"/><rect class="cls-26" x="302.51" y="685.54" width="5.61" height="86.46"/><rect class="cls-26" x="1.12" y="674.79" width="15.24" height="15.24"/><rect class="cls-26" x="134.16" y="551.37" width="15.24" height="15.24" transform="translate(436.79 63.47) rotate(45)"/><rect class="cls-26" x="136.2" y="456.1" width="15.24" height="15.24" transform="translate(370.03 34.13) rotate(45)"/><rect class="cls-26" y="768.77" width="15.24" height="15.24"/><path class="cls-61" d="M678.27,310.23c-7.91,11.44-15.16,14.51-33.58,4a15.06,15.06,0,0,0-5.51-1.72l-.23-.05c-8.09-1.09-19.4,1.52-28.05,3.38-5-14.54,1.38-44.72,27.88-42.26a28.58,28.58,0,0,1,13.54,5c11.58,7.79,17.26,21.69,20.53,20.74C672.85,299.27,683.66,302.42,678.27,310.23Z"/><path class="cls-36" d="M558.27,424.54a.69.69,0,0,1-.67-.5l-1.68-5.55-6.35,5.86a.7.7,0,0,1-1,0,.71.71,0,0,1,0-1l7.17-6.62a.73.73,0,0,1,.66-.16.68.68,0,0,1,.49.47l2,6.63a.7.7,0,0,1-.67.9Z"/><path class="cls-37" d="M427.59,812.13V943.91l-53.3-65.12s2.87-9.4,5.14-11.61c9-8.75,12.56-13.84,4-26.77-6.71-12.84-9.85-24.57,4.64-30.88,12.9-5.62,11-24.33,6.78-45.07l4.3,6.28Z"/><path class="cls-32" d="M571.07,808.85l-106.13,2.42-17.61.41-19.74.45-32.71-47.67s12.23-2,25.37-2.81c3.9-.22,7.9-.33,11.68-.28,7.2.13,13.63,1,17.16,3.09a56.24,56.24,0,0,0,13.8,6.28c10.09,2.75,15.44-1,21.12-4,3.22-1.72,6.52-3.22,10.88-3.22,12.51,0,11.25,6.64,16.49,6.92,2.3.13,5.85-1,12.41-4.43.9-.47,1.85-1,2.88-1.55Z"/><polygon class="cls-32" points="574.34 943.91 427.59 943.91 427.59 812.13 491.15 810.67 541.16 809.53 551.74 809.3 571.07 808.86 571.94 844.93 574.34 943.91"/><g class="cls-74"><polygon class="cls-75" points="427.59 812.13 427.59 920.02 399.18 770.74 427.59 812.13"/></g><path class="cls-76" d="M484,766.74l38.92,28.32-60-24.32C473,773.49,478.33,769.77,484,766.74Z"/><path class="cls-76" d="M542.09,802.33l-30.71-31.89c2.3.13,5.85-1,12.41-4.43Z"/><g class="cls-77"><path class="cls-78" d="M541.16,809.53,484.93,943.91H456.46l34.69-133.24Zm29.91-.68-19.33.45L496.87,943.91h14.54c16.29-27.06,40.46-66.41,60.53-99Z"/></g><rect class="cls-37" x="441.45" y="867.6" width="1.95" height="25.36"/><polygon class="cls-37" points="468.12 878.79 468.12 874.62 446.69 874.62 446.69 871.7 468.12 871.7 468.12 867.6 477.37 873.2 468.12 878.79"/><polygon class="cls-37" points="468.12 892.72 468.12 888.55 446.69 888.55 446.69 885.62 468.12 885.62 468.12 881.53 477.37 887.12 468.12 892.72"/><path class="cls-37" d="M454.34,915.7H443.89v6.21H441V906.2h2.92v6.58h10.45a10,10,0,0,1,9.88-8.53h13.15v7l-4-2.23-2,2.44L466.29,909l4.52,5.07,3.47-.78,2,2h1.1v8.89H464.22A10,10,0,0,1,454.34,915.7Z"/><path class="cls-36" d="M393.82,544.66c-8.15-22.62-8.53-43.63-1.16-64.25l1.32.47c-7.26,20.3-6.88,41,1.16,63.3Z"/><rect class="cls-29" x="442.64" y="672.68" width="1.4" height="50.16"/><path class="cls-48" d="M606.49,405.41a110.93,110.93,0,0,1-4.89,16.38l-24.7-13.4C586.75,407.38,596.62,406.29,606.49,405.41Z"/><path class="cls-79" d="M955.41,743.23l-.15.13c-10.76-4.92-18.24-10.77-22.88-16.62,0,0,0,0,0,0-4.86-6.09-6.61-12.11-5.77-16.93,6,7.19,13.14,12.75,21.23,17.89C948.35,733.15,951.21,738.46,955.41,743.23Z"/><path class="cls-36" d="M836.4,653.91A27.47,27.47,0,0,1,824.2,651a.71.71,0,0,1-.35-.87l2.6-7-7.49-.61a.71.71,0,0,1-.57-.39c-5.26-11-2.43-26.91,6.16-34.79a.7.7,0,0,1,1,1c-8,7.29-10.71,22.5-6,32.79l8,.65a.73.73,0,0,1,.54.32.68.68,0,0,1,.06.62l-2.69,7.3A24.48,24.48,0,0,0,851,647.55a.7.7,0,0,1,.84,1.12A25.53,25.53,0,0,1,836.4,653.91Z"/><polygon class="cls-61" points="911.39 591.93 902.59 589.29 902.86 588.39 911.66 591.04 911.39 591.93"/><rect class="cls-61" x="903.48" y="594.15" width="0.93" height="7.69" transform="translate(-172.88 474.83) rotate(-26.96)"/><rect class="cls-61" x="913.37" y="601.37" width="0.93" height="8.95" transform="translate(-158.39 834.94) rotate(-45.6)"/><path class="cls-61" d="M891.28,589.38c-2.8-3.25-5.47-3.82-8.14-1.73l-.58-.74c3.11-2.42,6.28-1.79,9.43,1.86Z"/><path class="cls-26" d="M930.42,587.93a1.86,1.86,0,0,1-.51-3.66l23-6.53a1.87,1.87,0,1,1,1,3.59l-23,6.53A1.79,1.79,0,0,1,930.42,587.93Z"/><path class="cls-26" d="M918.14,572.55a1.82,1.82,0,0,1-1.14-.4,1.86,1.86,0,0,1-.33-2.62l8.47-10.88a1.87,1.87,0,1,1,3,2.3l-8.47,10.87A1.86,1.86,0,0,1,918.14,572.55Z"/><path class="cls-26" d="M953.44,608.23H934.61a1.87,1.87,0,0,1,0-3.74h18.83a1.87,1.87,0,0,1,0,3.74Z"/><path class="cls-80" d="M672.85,299.27c-16.07,14.87-29.66.62-59.31,8.48,21.69-8.45,41.79-12.3,38.78-29.22C663.9,286.32,669.58,300.22,672.85,299.27Z"/><path class="cls-81" d="M656.34,467.91c-1.64,16.68-5.77,37.28-12.52,62.1l-22.51,2.73C633.82,511.41,645.37,490.06,656.34,467.91Z"/><g class="cls-82"><path class="cls-83" d="M485.75,373.23A230,230,0,0,0,477,430.71c-5.32-.86-10.84-1.59-16.5-2.06Q468.57,395.43,485.75,373.23Z"/></g><path class="cls-50" d="M801.16,594.88l-81.28,31.56,10.78,8.16-9,8.36-24.23,22.53q-3.13-3-5.7-6.09C677.69,643.05,674,627,677.81,613.24c8.88-32.16,58.86-51.35,112.6-30.44a147.8,147.8,0,0,1,18.82,9Z"/><polygon class="cls-50" points="741.48 640.05 740.02 641.65 709.12 675.58 708.89 675.82 696.03 666.81 697.45 665.49 730.65 634.59 733.08 632.33 741.48 640.05"/><path class="cls-84" d="M777.06,673.06c5.33,3.28,10.51,11.54,11.66,14.25,2.15,5.14-2.29,7.89-9.51,2.89-.33-.21-.66-.44-1-.7a10,10,0,0,1,.71.76c6.87,7.87-.9,12.15-7.54,4.49,3.87,7.87,3,12.52-8.42,6.84,4.32,11.48-4.08,7.94-18.6-2.7-2.56-1.87-5.29-4-8.18-6.23a207.12,207.12,0,0,1-18.69-11.09q-4.46-3-8.38-6l2-2.23L732,650.45l2.71-3,5.29-5.83,27.14,20.54C792.56,663.51,807.66,659.76,777.06,673.06Z"/><path class="cls-36" d="M712.63,631.29a.7.7,0,0,1-.2-1.37l8.6-2.58-8.39-8a.69.69,0,0,1,0-1,.71.71,0,0,1,1,0l9.27,8.79a.7.7,0,0,1,.21.67.74.74,0,0,1-.49.51l-9.76,2.93A.68.68,0,0,1,712.63,631.29Z"/><path class="cls-48" d="M732,650.45l-14.53,31.12q-4.46-3-8.38-6l2-2.23Z"/><rect class="cls-36" x="689.25" y="648.87" width="50.61" height="1.4" transform="translate(-251.04 661.74) rotate(-43)"/><path class="cls-29" d="M676,733.49c-9.83-7.8-18.41-19.54-25.51-34.88l1.27-.59c7,15.14,15.45,26.71,25.11,34.38Z"/><rect class="cls-36" x="586.3" y="530.18" width="58.4" height="1.4" transform="translate(-58.02 75.86) rotate(-6.74)"/><g class="cls-85"><path class="cls-86" d="M593.51,437.5c-8.6,12.73-19.72,19.51-31.51,21a74.14,74.14,0,0,0,13.66-14.22,92.1,92.1,0,0,0,8.32-14Z"/></g><rect class="cls-36" x="574.88" y="398" width="1.4" height="51.69" transform="translate(-110.31 625.04) rotate(-52.72)"/><path class="cls-32" d="M1139.86,572.56c-3.49,5-4.18,9.78-.58,14.34l-8.33,7-15.63,13.23-1.33,1.11,0,0-18.63,15.74,5.11-126.29,7-4.84,28.11-19.37,8.52-5.87-2.54,62.86c-8.9,10-8.78,18.45-1,25.63C1146.73,560.21,1145.56,565.89,1139.86,572.56Z"/><polygon class="cls-37" points="1144.11 467.69 1116.78 486.52 1106.11 493.86 1100.42 497.77 1030.38 490.91 977.08 485.69 1034.36 458.21 1036.6 457.15 1071.43 460.57 1115.02 464.83 1144.11 467.69"/><g class="cls-87"><path class="cls-88" d="M1139.86,572.56c-3.49,5-4.18,9.78-.58,14.34l-8.33,7-15.63,13.23c-.44.37-.88.76-1.33,1.16v-.05c5-40.35,13-80.57,19.36-120.72.74-4.68,1.5-9.33,2.23-14l8.52-5.87-2.54,62.86c-8.9,10-8.78,18.45-1,25.63C1146.73,560.21,1145.56,565.89,1139.86,572.56Z"/></g><path class="cls-32" d="M1100.43,497.76l-5.11,126.29L965.93,608.21s1.16-2.89,2.82-7.07v0c2.42-6.13,5.86-15,8.14-21.89.87-2.67,1.58-5,2-6.77a11,11,0,0,0,.18-4.54c-.76-3.94-4-6.09-6.34-8.46-1.84-1.9-3.06-4-1.87-7.23,2.19-6,7.43-10,12.36-13.56,5.13-3.7,9.93-7,10.77-11.6,1.1-6.13-1.56-9.66-5.07-13.29a63.76,63.76,0,0,1-7.28-8c-3.15-4.46-5.42-10.46-4.55-20l67.29,6.58Z"/><g class="cls-89"><path class="cls-90" d="M1100.43,497.76l-1.79,44.18c-13.83-12.82-35.52-32.84-54.27-49.66ZM983.21,538.67l74.4,11.62-68.7-36.53v0c3.51,3.63,6.17,7.16,5.07,13.29C993.14,531.69,988.34,535,983.21,538.67Zm-4.15,29.25a11,11,0,0,1-.18,4.54c-.41,1.74-1.12,4.1-2,6.77-2.28,6.84-5.72,15.76-8.14,21.89l128.71-29.9.42-10.38Z"/></g><rect class="cls-37" x="1078.44" y="494.69" width="1.54" height="20.06" transform="translate(485.67 1537.74) rotate(-85.18)"/><polygon class="cls-37" points="1078.68 525.06 1081.97 525.34 1083.39 508.45 1085.69 508.65 1084.27 525.53 1087.49 525.8 1082.47 532.73 1078.68 525.06"/><polygon class="cls-37" points="1067.7 524.14 1070.99 524.41 1072.41 507.53 1074.72 507.72 1073.29 524.61 1076.52 524.88 1071.5 531.8 1067.7 524.14"/><path class="cls-37" d="M1050.5,511.76l.7-8.24-4.89-.41.19-2.3,12.38,1-.19,2.3-5.19-.43-.69,8.23a7.91,7.91,0,0,1,6.07,8.35l-.88,10.36-5.5-.46,2-3-1.78-1.74,2.25-3.82-4.29,3.23.38,2.78-1.74,1.43-.07.87-7-.59.87-10.36A7.89,7.89,0,0,1,1050.5,511.76Z"/><path class="cls-91" d="M439.09,704.92q-2.55-9.51-5.69-18.84a137.36,137.36,0,0,0-5.29-12.79l10.62-.62Z"/><path class="cls-92" d="M384.46,523.84A259.54,259.54,0,0,0,450,553.62c-20.06-1.5-40.77-6.26-59-9.91A119.59,119.59,0,0,1,384.46,523.84Z"/></g></g></g></svg>